<?xml version="1.0" encoding="UTF-8" standalone="no"?>
<!-- Created with Inkscape (http://www.inkscape.org/) -->

<svg
   width="512"
   height="512"
   viewBox="0 0 512 512"
   version="1.1"
   id="svg5"
   xml:space="preserve"
   inkscape:version="1.2 (dc2aedaf03, 2022-05-15)"
   sodipodi:docname="bottlefiller.svg"
   xmlns:inkscape="http://www.inkscape.org/namespaces/inkscape"
   xmlns:sodipodi="http://sodipodi.sourceforge.net/DTD/sodipodi-0.dtd"
   xmlns="http://www.w3.org/2000/svg"
   xmlns:svg="http://www.w3.org/2000/svg"><sodipodi:namedview
     id="namedview7"
     pagecolor="#ffffff"
     bordercolor="#666666"
     borderopacity="1.0"
     inkscape:showpageshadow="2"
     inkscape:pageopacity="0"
     inkscape:pagecheckerboard="true"
     inkscape:deskcolor="#d1d1d1"
     inkscape:document-units="mm"
     showgrid="false"
     inkscape:zoom="0.52724989"
     inkscape:cx="607.87116"
     inkscape:cy="546.23055"
     inkscape:window-width="2560"
     inkscape:window-height="1017"
     inkscape:window-x="-8"
     inkscape:window-y="-8"
     inkscape:window-maximized="1"
     inkscape:current-layer="layer1" /><defs
     id="defs2" /><g
     inkscape:label="Layer 1"
     inkscape:groupmode="layer"
     id="layer1"><path
       style="fill:#10b382;fill-opacity:1;stroke-width:0.61586"
       d="m 103.05187,483.79618 c -15.66003,-0.68684 -29.844108,-2.77395 -35.951549,-5.29005 -4.243061,-1.74802 -9.070373,-6.25608 -10.861325,-10.14305 -3.56752,-7.74276 -3.478654,-6.02788 -4.155741,-80.20554 -0.836957,-91.69103 -0.538504,-131.16448 1.034508,-136.82619 1.948219,-7.01213 7.534243,-15.63185 17.121265,-26.41969 4.680973,-5.26726 9.403776,-13.07987 10.938852,-18.09535 0.810231,-2.64727 1.259173,-8.22123 1.700796,-21.11702 0.998838,-29.16666 2.252601,-44.52458 6.410764,-78.52877 l 2.291234,-18.736814 -1.633812,-2.632249 c -1.98577,-3.199316 -1.987033,-3.883321 -0.02062,-11.647039 l 1.555718,-6.144197 -1.413656,-1.54398 C 86.896659,63.00225 88.15591,51.420883 92.239665,46.495997 c 2.455389,-2.961113 7.478499,-5.721609 11.780685,-6.474171 5.372,-0.939703 39.66666,-0.783056 44.20361,0.201922 6.55794,1.423707 11.55017,5.25913 13.79199,10.596069 0.55723,1.326467 0.94121,4.622226 0.95098,8.162145 0.0164,5.105357 -0.17689,6.148706 -1.3634,7.445825 l -1.3798,1.508497 1.64506,7.435814 1.64511,7.435812 -1.7522,2.754641 -1.75216,2.754645 2.29031,18.795074 c 4.137,33.94995 5.50185,50.85279 6.18844,76.64031 0.23171,8.70419 0.8099,17.07704 1.37524,19.91656 1.30505,6.55483 4.28196,12.63174 8.79787,17.95951 17.05528,20.12154 19.32564,24.16524 20.89238,37.21147 0.40409,3.36504 0.55049,8.49601 0.32533,11.40217 -0.22526,2.90616 -0.42637,44.57976 -0.44709,92.60796 -0.0231,54.60473 -0.29531,89.30387 -0.72524,92.60798 -1.62826,12.51314 -6.04579,19.66479 -14.24308,23.05849 -11.32855,4.69003 -45.02603,6.87531 -81.41121,5.27946 z m 48.07019,-11.70261 c 11.86464,-0.78852 23.02219,-2.33196 26.3012,-3.63824 3.51143,-1.39888 5.40123,-4.40194 6.62226,-10.5234 1.51582,-7.59922 2.28539,-195.82258 0.82835,-202.59311 -1.501,-6.97476 -5.02777,-12.48616 -15.87398,-24.80659 -11.09537,-12.60349 -14.49361,-23.08541 -14.5348,-44.83294 -0.0352,-18.67193 -1.99816,-43.44551 -6.14169,-77.51732 l -2.76441,-22.73121 -0.0436,-2.522315 0.32503,-2.415924 1.09144,-7.765388 c 1.4439,-10.272954 -2.49732,-10.599176 0.0258,-12.94309 2.17126,-2.017042 2.58933,-4.0534 1.25246,-6.100734 -1.65372,-2.532574 -1.97701,-2.569758 -22.39181,-2.575347 -22.17654,-0.0061 -22.27406,0.01228 -22.9786,4.296522 -0.33386,2.030401 -0.11727,2.56212 1.75198,4.298508 1.17315,1.089823 2.13302,2.559466 2.13302,3.265877 0,0.706408 -0.9167,4.976068 -2.03714,9.488135 l 0.27444,7.946915 0.57787,2.635326 0.52844,2.378488 -2.03304,16.619477 c -4.866046,39.77889 -5.796636,50.50554 -6.822026,78.63623 -0.38471,10.55397 -0.88933,20.81593 -1.12136,22.80438 -0.83495,7.15464 -5.694377,17.70971 -11.1287,24.17237 -13.257817,15.76654 -15.355933,18.69669 -17.560827,24.52456 -1.194199,3.15641 -1.251597,7.82278 -1.251261,101.75624 2.58e-4,75.866 0.194327,99.34119 0.84585,102.34155 2.730228,12.5722 4.450201,13.46864 29.839988,15.55254 11.100806,0.91109 42.174776,1.05336 54.285056,0.24849 z"
       id="path302"
       sodipodi:nodetypes="ssssssssscsccssssscscccccsssssccssssssssscscccssscscsccccsscssscsss" /><path
       style="fill:#10b382;fill-opacity:1;stroke-width:0.61586"
       d="m 347.08941,487.47052 c -15.66003,-0.68684 -29.84411,-2.77395 -35.95155,-5.29005 -4.24306,-1.74802 -9.07037,-6.25608 -10.86132,-10.14305 -3.56752,-7.74276 -3.47866,-6.02788 -4.15575,-80.20554 -0.83695,-91.69103 -0.5385,-131.16448 1.03451,-136.82619 1.94822,-7.01213 7.53425,-15.63185 17.12127,-26.41969 4.68097,-5.26726 9.40377,-13.07987 10.93885,-18.09535 0.81023,-2.64727 1.25917,-8.22123 1.7008,-21.11702 0.99883,-29.16666 2.2526,-44.52458 6.41076,-78.52877 l 2.29123,-18.736812 -1.63381,-2.63225 c -1.98577,-3.19932 -1.98703,-3.88332 -0.0206,-11.64704 l 1.55572,-6.1442 -1.41366,-1.54398 c -3.17164,-3.46399 -1.91239,-15.04536 2.17136,-19.97024 2.45539,-2.96112 7.4785,-5.72161 11.78069,-6.47417 5.372,-0.93971 39.66666,-0.78306 44.20361,0.20192 6.55794,1.42371 11.55017,5.25913 13.79199,10.59607 0.55723,1.32646 0.94121,4.62222 0.95098,8.16214 0.0164,5.10536 -0.17689,6.14871 -1.3634,7.44583 l -1.3798,1.50849 1.64506,7.43582 1.64511,7.43581 -1.7522,2.75464 -1.75216,2.75465 2.29031,18.795072 c 4.137,33.94995 5.50185,50.85279 6.18844,76.64031 0.23171,8.70419 0.8099,17.07704 1.37524,19.91656 1.30505,6.55483 4.28196,12.63174 8.79787,17.95951 17.05528,20.12154 19.32564,24.16524 20.89238,37.21147 0.40409,3.36504 0.55049,8.49601 0.32533,11.40217 -0.22526,2.90616 -0.42637,44.57976 -0.44709,92.60796 -0.0231,54.60473 -0.29531,89.30387 -0.72524,92.60798 -1.62826,12.51314 -6.04579,19.66479 -14.24308,23.05849 -11.32855,4.69003 -45.02603,6.87531 -81.41121,5.27946 z m 48.07019,-11.70261 c 11.86464,-0.78852 23.02219,-2.33196 26.3012,-3.63824 3.51143,-1.39888 5.40123,-4.40194 6.62226,-10.5234 1.51582,-7.59922 2.28539,-195.82258 0.82835,-202.59311 -1.501,-6.97476 -5.02777,-12.48616 -15.87398,-24.80659 -11.09537,-12.60349 -14.49361,-23.08541 -14.5348,-44.83294 -0.0352,-18.67193 -1.99816,-43.44551 -6.14169,-77.51732 l -2.76441,-22.731212 -0.0436,-2.52231 0.32503,-2.41593 1.09144,-7.76539 c 1.4439,-10.27295 -2.49732,-10.59917 0.0258,-12.94309 2.17126,-2.01704 2.58933,-4.0534 1.25246,-6.10073 -1.65372,-2.53257 -1.97701,-2.56976 -22.39181,-2.57535 -22.17654,-0.006 -22.27406,0.0123 -22.9786,4.29652 -0.33386,2.0304 -0.11727,2.56212 1.75198,4.29851 1.17315,1.08982 2.13302,2.55947 2.13302,3.26588 0,0.70641 -0.9167,4.97607 -2.03714,9.48813 l 0.27444,7.94692 0.57787,2.63533 0.52844,2.37848 -2.03304,16.619482 c -4.86605,39.77889 -5.79664,50.50554 -6.82203,78.63623 -0.38471,10.55397 -0.88933,20.81593 -1.12136,22.80438 -0.83495,7.15464 -5.69437,17.70971 -11.1287,24.17237 -13.25781,15.76654 -15.35593,18.69669 -17.56082,24.52456 -1.1942,3.15641 -1.2516,7.82278 -1.25126,101.75624 2.5e-4,75.866 0.19432,99.34119 0.84585,102.34155 2.73022,12.5722 4.4502,13.46864 29.83998,15.55254 11.10081,0.91109 42.17478,1.05336 54.28506,0.24849 z m -46.53808,-7.71956 c -19.87458,-0.84132 -23.76857,-1.9221 -26.1587,-7.26027 -1.30855,-2.92258 -1.36381,-4.43216 -1.36381,-37.25258 0,-18.8136 0.79822,-19.94334 0.52971,-35.75334 -0.0492,-2.8964 -2.11344,-45.26251 -0.90458,-45.86369 2.12565,-1.05715 12.39967,-0.75472 55.44195,-2.94154 l 43.11023,-2.19025 0.15928,16.19063 0.67295,34.6831 0.37686,28.89527 c 0.38974,29.88126 -0.0688,41.66983 -1.74544,44.88206 -2.04309,3.91409 -5.08288,5.0917 -15.47021,5.99314 -9.07074,0.78721 -41.88205,1.15795 -54.64822,0.61751 z"
       id="path302-6"
       sodipodi:nodetypes="ssssssssscsccssssscscccccsssssccssssssssscscccssscscsccccsscssscsssssssscccsssss" /></g></svg>
